# xmcd CD database file
#
# Track frame offsets:
#	150
#	19767
#	35422
#	72633
#	93013
#	111989
#	130938
#	144352
#	157512
#	173187
#	187791
#	197849
#	220857
#	237963
#	251585
#	264190
#	274713
#
# Disc length: 3856 seconds
#
# Revision: 0
# Processed by: cddbd v1.5.1PL2 Copyright (c) Steve Scherf et al.
# Submitted via: Feurio! 1.68 - http://www.feurio.com
#
DISCID=e30f0e11
DTITLE=George Thorogood and The Destroyers - Move It On Over (edit)
DYEAR=1900
DGENRE=Bluesrock
TTITLE0=Thorogood - Madison Blues
TTITLE1=Thorogood - Worried About My Baby
TTITLE2=Thorogood - One Bourbon, One Scotch, One Beer
TTITLE3=Thorogood - New Hawaiian Boogie
TTITLE4=Thorogood - Move It On Over
TTITLE5=Thorogood - Who Do You Love
TTITLE6=Thorogood - That Same Thing
TTITLE7=Thorogood - Homesick Boy
TTITLE8=Thorogood - I'm Just Your Good Thing
TTITLE9=Thorogood - You Got To Lose
TTITLE10=Thorogood - You're Gonna Miss Me
TTITLE11=Thorogood - The Sky Is Crying
TTITLE12=Thorogood - It Wasn't Me
TTITLE13=Thorogood - Can't Stop Lovin'
TTITLE14=Thorogood - Cocaine Blues
TTITLE15=Thorogood - Huckle Up Baby
TTITLE16=Thorogood - So Much Trouble
EXTD=
EXTT0=
EXTT1=
EXTT2=
EXTT3=
EXTT4=
EXTT5=
EXTT6=
EXTT7=
EXTT8=
EXTT9=
EXTT10=
EXTT11=
EXTT12=
EXTT13=
EXTT14=
EXTT15=
EXTT16=
PLAYORDER=
